<svg class="main-svg" xmlns="http://www.w3.org/2000/svg" xmlns:xlink="http://www.w3.org/1999/xlink" width="700" height="500" style="" viewBox="0 0 700 500"><rect x="0" y="0" width="700" height="500" style="fill: rgb(255, 255, 255); fill-opacity: 1;"/><defs id="defs-072a77"><g class="clips"><clipPath id="clip072a77xyplot" class="plotclip"><rect width="540" height="320"/></clipPath><clipPath class="axesclip" id="clip072a77x"><rect x="80" y="0" width="540" height="500"/></clipPath><clipPath class="axesclip" id="clip072a77y"><rect x="0" y="100" width="700" height="320"/></clipPath><clipPath class="axesclip" id="clip072a77xy"><rect x="80" y="100" width="540" height="320"/></clipPath></g><g class="gradients"/><g class="patterns"/></defs><g class="bglayer"/><g class="layer-below"><g class="imagelayer"/><g class="shapelayer"/></g><g class="cartesianlayer"><g class="subplot xy"><g class="layer-subplot"><g class="shapelayer"/><g class="imagelayer"/></g><g class="minor-gridlayer"><g class="x"/><g class="y"/></g><g class="gridlayer"><g class="x"><path class="xgrid crisp" transform="translate(215,0)" d="M0,100v320" style="stroke: rgb(238, 238, 238); stroke-opacity: 1; stroke-width: 1px;"/><path class="xgrid crisp" transform="translate(350,0)" d="M0,100v320" style="stroke: rgb(238, 238, 238); stroke-opacity: 1; stroke-width: 1px;"/><path class="xgrid crisp" transform="translate(485,0)" d="M0,100v320" style="stroke: rgb(238, 238, 238); stroke-opacity: 1; stroke-width: 1px;"/></g><g class="y"><path class="ygrid crisp" transform="translate(0,379.47)" d="M80,0h540" style="stroke: rgb(238, 238, 238); stroke-opacity: 1; stroke-width: 1px;"/><path class="ygrid crisp" transform="translate(0,338.93)" d="M80,0h540" style="stroke: rgb(238, 238, 238); stroke-opacity: 1; stroke-width: 1px;"/><path class="ygrid crisp" transform="translate(0,298.4)" d="M80,0h540" style="stroke: rgb(238, 238, 238); stroke-opacity: 1; stroke-width: 1px;"/><path class="ygrid crisp" transform="translate(0,257.87)" d="M80,0h540" style="stroke: rgb(238, 238, 238); stroke-opacity: 1; stroke-width: 1px;"/><path class="ygrid crisp" transform="translate(0,217.32999999999998)" d="M80,0h540" style="stroke: rgb(238, 238, 238); stroke-opacity: 1; stroke-width: 1px;"/><path class="ygrid crisp" transform="translate(0,176.8)" d="M80,0h540" style="stroke: rgb(238, 238, 238); stroke-opacity: 1; stroke-width: 1px;"/><path class="ygrid crisp" transform="translate(0,136.27)" d="M80,0h540" style="stroke: rgb(238, 238, 238); stroke-opacity: 1; stroke-width: 1px;"/></g></g><g class="zerolinelayer"><path class="xzl zl crisp" transform="translate(80,0)" d="M0,100v320" style="stroke: rgb(68, 68, 68); stroke-opacity: 1; stroke-width: 1px;"/><path class="yzl zl crisp" transform="translate(0,420)" d="M80,0h540" style="stroke: rgb(68, 68, 68); stroke-opacity: 1; stroke-width: 1px;"/></g><path class="xlines-below"/><path class="ylines-below"/><g class="overlines-below"/><g class="xaxislayer-below"/><g class="yaxislayer-below"/><g class="overaxes-below"/><g class="plot" transform="translate(80,100)" clip-path="url(#clip072a77xyplot)"><g class="scatterlayer mlayer"><g class="trace scatter trace440577" style="stroke-miterlimit: 2;"><g class="fills"><g><path class="js-fill" d="M540,320L0,320L0,320L17.14,303.92L17.15,303.92L33.82,288.3L33.82,288.3L33.83,288.3L43.62,281.89L43.62,281.89L43.63,281.89L67.16,266.5L67.16,266.5L67.17,266.5L76.01,261.28L76.01,261.28L76.02,261.28L102.21,246.03L102.21,246.03L102.22,246.03L190.94,208.33L190.94,208.33L190.95,208.33L207.42,202.08L207.42,202.08L207.43,202.08L223.19,196.58L223.2,196.58L237.71,191.58L237.72,191.58L265.58,183.08L265.59,183.08L279.22,179.32L279.22,179.32L279.23,179.32L316.9,170.04L316.9,170.04L316.91,170.04L332.87,166.56L332.88,166.56L343.47,164.51L343.47,164.51L343.48,164.51L371.98,159.57L371.98,159.57L371.99,159.57L529.76,138.72L529.76,138.72L529.77,138.72L540,137.6" style="fill: rgb(7, 0, 19); fill-opacity: 1; stroke-width: 0;"/></g><g><path class="js-fill" d="M0,320L17.14,303.92L17.15,303.92L33.82,288.3L33.82,288.3L33.83,288.3L43.62,281.89L43.62,281.89L43.63,281.89L67.16,266.5L67.16,266.5L67.17,266.5L67.5,266.28L67.5,250.32L105.31,219.78L105.31,219.78L105.32,219.78L117.39,211.66L117.39,211.66L117.4,211.66L162.46,181.36L162.46,181.36L162.47,181.36L172.44,174.81L172.45,174.81L186.82,165.77L186.83,165.77L231.23,139.1L231.24,139.1L246.01,130.88L246.02,130.88L257.99,124.39L257.99,124.39L258,124.39L269.92,117.93L269.92,117.93L269.93,117.93L274.93,116.6L274.93,116.6L274.94,116.6L316.48,106.29L316.48,106.29L316.49,106.29L332.41,102.82L332.41,102.82L332.42,102.82L343.24,100.71L343.24,100.71L343.25,100.71L371.85,95.75L371.85,95.75L371.86,95.75L529.76,74.88L529.76,74.88L529.77,74.88L540,73.76L540,137.6L529.77,138.72L529.76,138.72L529.76,138.72L371.99,159.57L371.98,159.57L371.98,159.57L343.48,164.51L343.47,164.51L343.47,164.51L332.88,166.56L332.87,166.56L316.91,170.04L316.9,170.04L316.9,170.04L279.23,179.32L279.22,179.32L279.22,179.32L265.59,183.08L265.58,183.08L237.72,191.58L237.71,191.58L223.2,196.58L223.19,196.58L207.43,202.08L207.42,202.08L207.42,202.08L190.95,208.33L190.94,208.33L190.94,208.33L102.22,246.03L102.21,246.03L102.21,246.03L76.02,261.28L76.01,261.28L76.01,261.28L67.17,266.5L67.16,266.5L67.16,266.5L43.63,281.89L43.62,281.89L43.62,281.89L33.83,288.3L33.82,288.3L33.82,288.3L17.15,303.92L17.14,303.92L0,320Z" style="fill: rgb(83, 77, 224); fill-opacity: 1; stroke-width: 0;"/></g></g><g class="errorbars"/><g class="lines"><path class="js-line" d="M0,320L17.14,303.92L17.15,303.92L33.82,288.3L33.82,288.3L33.83,288.3L43.62,281.89L43.62,281.89L43.63,281.89L67.16,266.5L67.16,266.5L67.17,266.5L76.01,261.28L76.01,261.28L76.02,261.28L102.21,246.03L102.21,246.03L102.22,246.03L190.94,208.33L190.94,208.33L190.95,208.33L207.42,202.08L207.42,202.08L207.43,202.08L223.19,196.58L223.2,196.58L237.71,191.58L237.72,191.58L265.58,183.08L265.59,183.08L279.22,179.32L279.22,179.32L279.23,179.32L316.9,170.04L316.9,170.04L316.91,170.04L332.87,166.56L332.88,166.56L343.47,164.51L343.47,164.51L343.48,164.51L371.98,159.57L371.98,159.57L371.99,159.57L529.76,138.72L529.76,138.72L529.77,138.72L540,137.6" style="vector-effect: non-scaling-stroke; fill: none; stroke: rgb(7, 0, 19); stroke-opacity: 1; stroke-width: 0.5px; opacity: 1;"/></g><g class="points"/><g class="text"/></g><g class="trace scatter trace99fbef" style="stroke-miterlimit: 2;"><g class="fills"><g><path class="js-fill" d="M0,320L17.14,303.92L17.15,303.92L33.82,288.3L33.82,288.3L33.83,288.3L43.62,281.89L43.62,281.89L43.63,281.89L67.16,266.5L67.16,266.5L67.17,266.5L67.5,266.28L67.5,241.2L93.48,216.28L93.49,216.28L105.08,205.74L105.09,205.74L142.42,175.59L142.42,175.59L142.43,175.59L172.85,151.2L172.86,151.2L186.92,140.45L186.92,140.45L186.93,140.45L200.93,129.75L200.93,129.75L200.94,129.75L210.15,123.04L210.15,123.04L210.16,123.04L238.4,102.79L238.4,102.79L238.41,102.79L251.14,94.17L251.15,94.17L263.92,85.52L263.92,85.52L263.93,85.52L271.87,80.92L271.87,80.92L271.88,80.92L316.16,69.88L316.16,69.88L316.17,69.88L332.09,66.41L332.09,66.41L332.1,66.41L343.07,64.26L343.07,64.26L343.08,64.26L371.83,59.27L371.83,59.27L371.84,59.27L529.76,38.4L529.76,38.4L529.77,38.4L540,37.28L540,73.76L529.77,74.88L529.76,74.88L529.76,74.88L371.86,95.75L371.85,95.75L371.85,95.75L343.25,100.71L343.24,100.71L343.24,100.71L332.42,102.82L332.41,102.82L332.41,102.82L316.49,106.29L316.48,106.29L316.48,106.29L274.94,116.6L274.93,116.6L274.93,116.6L269.93,117.93L269.92,117.93L269.92,117.93L258,124.39L257.99,124.39L257.99,124.39L246.02,130.88L246.01,130.88L231.24,139.1L231.23,139.1L186.83,165.77L186.82,165.77L172.45,174.81L172.44,174.81L162.47,181.36L162.46,181.36L162.46,181.36L117.4,211.66L117.39,211.66L117.39,211.66L105.32,219.78L105.31,219.78L105.31,219.78L67.5,250.32L67.5,266.28L67.17,266.5L67.16,266.5L67.16,266.5L43.63,281.89L43.62,281.89L43.62,281.89L33.83,288.3L33.82,288.3L33.82,288.3L17.15,303.92L17.14,303.92L0,320Z" style="fill: rgb(255, 212, 229); fill-opacity: 1; stroke-width: 0;"/></g></g><g class="errorbars"/><g class="lines"><path class="js-line" d="M0,320L17.14,303.92L17.15,303.92L33.82,288.3L33.82,288.3L33.83,288.3L43.62,281.89L43.62,281.89L43.63,281.89L67.16,266.5L67.16,266.5L67.17,266.5L67.5,266.28L67.5,250.32L105.31,219.78L105.31,219.78L105.32,219.78L117.39,211.66L117.39,211.66L117.4,211.66L162.46,181.36L162.46,181.36L162.47,181.36L172.44,174.81L172.45,174.81L186.82,165.77L186.83,165.77L231.23,139.1L231.24,139.1L246.01,130.88L246.02,130.88L257.99,124.39L257.99,124.39L258,124.39L269.92,117.93L269.92,117.93L269.93,117.93L274.93,116.6L274.93,116.6L274.94,116.6L316.48,106.29L316.48,106.29L316.49,106.29L332.41,102.82L332.41,102.82L332.42,102.82L343.24,100.71L343.24,100.71L343.25,100.71L371.85,95.75L371.85,95.75L371.86,95.75L529.76,74.88L529.76,74.88L529.77,74.88L540,73.76" style="vector-effect: non-scaling-stroke; fill: none; stroke: rgb(83, 77, 224); stroke-opacity: 1; stroke-width: 0.5px; opacity: 1;"/></g><g class="points"/><g class="text"/></g><g class="trace scatter trace1fe59e" style="stroke-miterlimit: 2;"><g class="fills"><g><path class="js-fill" d="M0,320L17.14,303.92L17.15,303.92L33.82,288.3L33.82,288.3L33.83,288.3L43.62,281.89L43.62,281.89L43.63,281.89L67.16,266.5L67.16,266.5L67.17,266.5L67.5,266.28L67.5,235.88L95.48,206.84L95.48,206.83L110.48,192.67L110.49,192.67L119.89,184.33L119.89,184.33L119.9,184.33L129.31,175.98L129.32,175.98L138.7,167.66L138.71,167.66L148.09,159.34L148.09,159.34L148.1,159.34L157.53,150.97L157.54,150.97L166.91,142.66L166.92,142.66L174.21,136.43L174.21,136.43L174.22,136.43L230.67,90.08L230.67,90.08L230.68,90.08L246.26,78.06L246.26,78.06L246.27,78.06L258.76,68.62L258.77,68.62L270.18,60.08L270.18,60.08L270.19,60.08L315.94,48.65L315.94,48.65L315.95,48.65L331.94,45.16L331.94,45.16L331.95,45.16L366.99,38.81L366.99,38.81L367,38.81L380.65,36.84L380.66,36.84L529.76,17.12L529.76,17.12L529.77,17.12L540,16L540,37.28L529.77,38.4L529.76,38.4L529.76,38.4L371.84,59.27L371.83,59.27L371.83,59.27L343.08,64.26L343.07,64.26L343.07,64.26L332.1,66.41L332.09,66.41L332.09,66.41L316.17,69.88L316.16,69.88L316.16,69.88L271.88,80.92L271.87,80.92L271.87,80.92L263.93,85.52L263.92,85.52L263.92,85.52L251.15,94.17L251.14,94.17L238.41,102.79L238.4,102.79L238.4,102.79L210.16,123.04L210.15,123.04L210.15,123.04L200.94,129.75L200.93,129.75L200.93,129.75L186.93,140.45L186.92,140.45L186.92,140.45L172.86,151.2L172.85,151.2L142.43,175.59L142.42,175.59L142.42,175.59L105.09,205.74L105.08,205.74L93.49,216.28L93.48,216.28L67.5,241.2L67.5,266.28L67.17,266.5L67.16,266.5L67.16,266.5L43.63,281.89L43.62,281.89L43.62,281.89L33.83,288.3L33.82,288.3L33.82,288.3L17.15,303.92L17.14,303.92L0,320Z" style="fill: rgb(255, 243, 204); fill-opacity: 1; stroke-width: 0;"/></g></g><g class="errorbars"/><g class="lines"><path class="js-line" d="M0,320L17.14,303.92L17.15,303.92L33.82,288.3L33.82,288.3L33.83,288.3L43.62,281.89L43.62,281.89L43.63,281.89L67.16,266.5L67.16,266.5L67.17,266.5L67.5,266.28L67.5,241.2L93.48,216.28L93.49,216.28L105.08,205.74L105.09,205.74L142.42,175.59L142.42,175.59L142.43,175.59L172.85,151.2L172.86,151.2L186.92,140.45L186.92,140.45L186.93,140.45L200.93,129.75L200.93,129.75L200.94,129.75L210.15,123.04L210.15,123.04L210.16,123.04L238.4,102.79L238.4,102.79L238.41,102.79L251.14,94.17L251.15,94.17L263.92,85.52L263.92,85.52L263.93,85.52L271.87,80.92L271.87,80.92L271.88,80.92L316.16,69.88L316.16,69.88L316.17,69.88L332.09,66.41L332.09,66.41L332.1,66.41L343.07,64.26L343.07,64.26L343.08,64.26L371.83,59.27L371.83,59.27L371.84,59.27L529.76,38.4L529.76,38.4L529.77,38.4L540,37.28" style="vector-effect: non-scaling-stroke; fill: none; stroke: rgb(255, 212, 229); stroke-opacity: 1; stroke-width: 0.5px; opacity: 1;"/></g><g class="points"/><g class="text"/></g><g class="trace scatter traceccfa84" style="stroke-miterlimit: 2;"><g class="fills"/><g class="errorbars"/><g class="lines"><path class="js-line" d="M0,320L17.14,303.92L17.15,303.92L33.82,288.3L33.82,288.3L33.83,288.3L43.62,281.89L43.62,281.89L43.63,281.89L67.16,266.5L67.16,266.5L67.17,266.5L67.5,266.28L67.5,235.88L95.48,206.84L95.48,206.83L110.48,192.67L110.49,192.67L119.89,184.33L119.89,184.33L119.9,184.33L129.31,175.98L129.32,175.98L138.7,167.66L138.71,167.66L148.09,159.34L148.09,159.34L148.1,159.34L157.53,150.97L157.54,150.97L166.91,142.66L166.92,142.66L174.21,136.43L174.21,136.43L174.22,136.43L230.67,90.08L230.67,90.08L230.68,90.08L246.26,78.06L246.26,78.06L246.27,78.06L258.76,68.62L258.77,68.62L270.18,60.08L270.18,60.08L270.19,60.08L315.94,48.65L315.94,48.65L315.95,48.65L331.94,45.16L331.94,45.16L331.95,45.16L366.99,38.81L366.99,38.81L367,38.81L380.65,36.84L380.66,36.84L529.76,17.12L529.76,17.12L529.77,17.12L540,16" style="vector-effect: non-scaling-stroke; fill: none; stroke: rgb(255, 243, 204); stroke-opacity: 1; stroke-width: 0.5px; opacity: 1;"/></g><g class="points"/><g class="text"/></g></g></g><g class="overplot"/><path class="xlines-above crisp" d="M0,0" style="fill: none;"/><path class="ylines-above crisp" d="M0,0" style="fill: none;"/><g class="overlines-above"/><g class="xaxislayer-above"><g class="xtick"><text text-anchor="middle" x="0" y="433" transform="translate(80,0)" style="font-family: Consolas; font-size: 12px; fill: rgb(68, 68, 68); fill-opacity: 1; white-space: pre; opacity: 1;">0</text></g><g class="xtick"><text text-anchor="middle" x="0" y="433" style="font-family: Consolas; font-size: 12px; fill: rgb(68, 68, 68); fill-opacity: 1; white-space: pre; opacity: 1;" transform="translate(215,0)">2</text></g><g class="xtick"><text text-anchor="middle" x="0" y="433" style="font-family: Consolas; font-size: 12px; fill: rgb(68, 68, 68); fill-opacity: 1; white-space: pre; opacity: 1;" transform="translate(350,0)">4</text></g><g class="xtick"><text text-anchor="middle" x="0" y="433" style="font-family: Consolas; font-size: 12px; fill: rgb(68, 68, 68); fill-opacity: 1; white-space: pre; opacity: 1;" transform="translate(485,0)">6</text></g><g class="xtick"><text text-anchor="middle" x="0" y="433" style="font-family: Consolas; font-size: 12px; fill: rgb(68, 68, 68); fill-opacity: 1; white-space: pre; opacity: 1;" transform="translate(620,0)">8</text></g></g><g class="yaxislayer-above"><g class="ytick"><text text-anchor="end" x="79" y="4.199999999999999" transform="translate(0,420)" style="font-family: Consolas; font-size: 12px; fill: rgb(68, 68, 68); fill-opacity: 1; white-space: pre; opacity: 1;">0</text></g><g class="ytick"><text text-anchor="end" x="79" y="4.199999999999999" style="font-family: Consolas; font-size: 12px; fill: rgb(68, 68, 68); fill-opacity: 1; white-space: pre; opacity: 1;" transform="translate(0,379.47)">0.2B</text></g><g class="ytick"><text text-anchor="end" x="79" y="4.199999999999999" style="font-family: Consolas; font-size: 12px; fill: rgb(68, 68, 68); fill-opacity: 1; white-space: pre; opacity: 1;" transform="translate(0,338.93)">0.4B</text></g><g class="ytick"><text text-anchor="end" x="79" y="4.199999999999999" style="font-family: Consolas; font-size: 12px; fill: rgb(68, 68, 68); fill-opacity: 1; white-space: pre; opacity: 1;" transform="translate(0,298.4)">0.6B</text></g><g class="ytick"><text text-anchor="end" x="79" y="4.199999999999999" style="font-family: Consolas; font-size: 12px; fill: rgb(68, 68, 68); fill-opacity: 1; white-space: pre; opacity: 1;" transform="translate(0,257.87)">0.8B</text></g><g class="ytick"><text text-anchor="end" x="79" y="4.199999999999999" style="font-family: Consolas; font-size: 12px; fill: rgb(68, 68, 68); fill-opacity: 1; white-space: pre; opacity: 1;" transform="translate(0,217.32999999999998)">1B</text></g><g class="ytick"><text text-anchor="end" x="79" y="4.199999999999999" style="font-family: Consolas; font-size: 12px; fill: rgb(68, 68, 68); fill-opacity: 1; white-space: pre; opacity: 1;" transform="translate(0,176.8)">1.2B</text></g><g class="ytick"><text text-anchor="end" x="79" y="4.199999999999999" style="font-family: Consolas; font-size: 12px; fill: rgb(68, 68, 68); fill-opacity: 1; white-space: pre; opacity: 1;" transform="translate(0,136.27)">1.4B</text></g></g><g class="overaxes-above"/></g></g><g class="polarlayer"/><g class="smithlayer"/><g class="ternarylayer"/><g class="geolayer"/><g class="funnelarealayer"/><g class="pielayer"/><g class="iciclelayer"/><g class="treemaplayer"/><g class="sunburstlayer"/><g class="glimages"/><defs id="topdefs-072a77"><g class="clips"/><clipPath id="legend072a77"><rect width="369" height="29" x="0" y="0"/></clipPath></defs><g class="layer-above"><g class="imagelayer"/><g class="shapelayer"/></g><g class="infolayer"><g class="legend" pointer-events="all" transform="translate(251,64.6)"><rect class="bg" shape-rendering="crispEdges" style="stroke: rgb(68, 68, 68); stroke-opacity: 1; fill: rgb(255, 255, 255); fill-opacity: 1; stroke-width: 0px;" width="369" height="29" x="0" y="0"/><g class="scrollbox" transform="" clip-path="url(#legend072a77)"><g class="groups"><g class="traces" transform="translate(0,14.5)" style="opacity: 1;"><text class="legendtext" text-anchor="start" x="40" y="4.680000000000001" style="font-family: Consolas; font-size: 12px; fill: rgb(68, 68, 68); fill-opacity: 1; white-space: pre;">PRIV.</text><g class="layers"><g class="legendfill"><path class="js-fill" d="M5,-2h30v6h-30z" style="stroke-width: 0; fill: rgb(255, 243, 204); fill-opacity: 1;"/></g><g class="legendlines"><path class="js-line" d="M5,-2h30" style="fill: none; stroke: rgb(255, 243, 204); stroke-opacity: 1; stroke-width: 0.5px;"/></g><g class="legendsymbols"><g class="legendpoints"/></g></g><rect class="legendtoggle" x="0" y="-9.5" width="72.84375" height="19" style="fill: rgb(0, 0, 0); fill-opacity: 0;"/></g><g class="traces" transform="translate(75.34375,14.5)" style="opacity: 1;"><text class="legendtext" text-anchor="start" x="40" y="4.680000000000001" style="font-family: Consolas; font-size: 12px; fill: rgb(68, 68, 68); fill-opacity: 1; white-space: pre;">SEED</text><g class="layers"><g class="legendfill"><path class="js-fill" d="M5,-2h30v6h-30z" style="stroke-width: 0; fill: rgb(255, 212, 229); fill-opacity: 1;"/></g><g class="legendlines"><path class="js-line" d="M5,-2h30" style="fill: none; stroke: rgb(255, 212, 229); stroke-opacity: 1; stroke-width: 0.5px;"/></g><g class="legendsymbols"><g class="legendpoints"/></g></g><rect class="legendtoggle" x="0" y="-9.5" width="90.296875" height="19" style="fill: rgb(0, 0, 0); fill-opacity: 0;"/></g><g class="traces" transform="translate(168.140625,14.5)" style="opacity: 1;"><text class="legendtext" text-anchor="start" x="40" y="4.680000000000001" style="font-family: Consolas; font-size: 12px; fill: rgb(68, 68, 68); fill-opacity: 1; white-space: pre;">TEAM</text><g class="layers"><g class="legendfill"><path class="js-fill" d="M5,-2h30v6h-30z" style="stroke-width: 0; fill: rgb(83, 77, 224); fill-opacity: 1;"/></g><g class="legendlines"><path class="js-line" d="M5,-2h30" style="fill: none; stroke: rgb(83, 77, 224); stroke-opacity: 1; stroke-width: 0.5px;"/></g><g class="legendsymbols"><g class="legendpoints"/></g></g><rect class="legendtoggle" x="0" y="-9.5" width="76.828125" height="19" style="fill: rgb(0, 0, 0); fill-opacity: 0;"/></g><g class="traces" transform="translate(247.46875,14.5)" style="opacity: 1;"><text class="legendtext" text-anchor="start" x="40" y="4.680000000000001" style="font-family: Consolas; font-size: 12px; fill: rgb(68, 68, 68); fill-opacity: 1; white-space: pre;">COMMUNITY</text><g class="layers"><g class="legendfill"><path class="js-fill" d="M5,-2h30v6h-30z" style="stroke-width: 0; fill: rgb(7, 0, 19); fill-opacity: 1;"/></g><g class="legendlines"><path class="js-line" d="M5,-2h30" style="fill: none; stroke: rgb(7, 0, 19); stroke-opacity: 1; stroke-width: 0.5px;"/></g><g class="legendsymbols"><g class="legendpoints"/></g></g><rect class="legendtoggle" x="0" y="-9.5" width="118.171875" height="19" style="fill: rgb(0, 0, 0); fill-opacity: 0;"/></g></g></g><rect class="scrollbar" rx="20" ry="3" width="0" height="0" style="fill: rgb(128, 139, 164); fill-opacity: 1;" x="0" y="0"/></g><g class="g-gtitle"><text class="gtitle" x="350" y="50" text-anchor="middle" dy="0em" style="font-family: Consolas; font-size: 17px; fill: rgb(68, 68, 68); opacity: 1; font-weight: normal; white-space: pre;">NIBI’s 8-year token release schedule</text></g><g class="g-xtitle"><text class="xtitle" x="350" y="472" text-anchor="middle" style="font-family: Consolas; font-size: 14px; fill: rgb(68, 68, 68); opacity: 1; font-weight: normal; white-space: pre;">Time (years)</text></g><g class="g-ytitle"><text class="ytitle" transform="rotate(-90,42,260)" x="42" y="260" text-anchor="middle" style="font-family: Consolas; font-size: 14px; fill: rgb(68, 68, 68); opacity: 1; font-weight: normal; white-space: pre;">NIBI amount</text></g></g></svg>